# xmcd
#
# Track frame offsets:
# 150
# 9984
# 29534
# 39720
# 52447
# 67197
# 78309
# 89855
# 102478
# 113457
# 125463
# 159443
# 168503
# 175403
# 183377
# 201702
# 217144
# 251475
# 274891
# 287996
# 303001
# 319354
#
# Disc length: 4417 seconds
#
# Revision: 0
# Processed by: cddbd v1.4PL0 Copyright (c) Steve Scherf et al.
# Submitted via: Audion 3.0.2 (http://www.panic.com/audion/)
#
DISCID=58113f16
DTITLE=Serge Gainsbourg - de Gainsbourg à Gainsbar
DYEAR=1900
DGENRE=
TTITLE0=Comic Strip and B.B. (en anglais)
TTITLE1=Je t'aime moi non plus +jane B
TTITLE2=l'anamour
TTITLE3=sous le soleil exactement
TTITLE4=69 année érotique
TTITLE5=élisa
TTITLE6=les sucettes
TTITLE7=la chanson de slogan
TTITLE8=cannabis
TTITLE9=charlie brown a boy named charlie brown
TTITLE10=melody
TTITLE11=ballade de melody nelson
TTITLE12=valse de melody
TTITLE13=ah! melody
TTITLE14=l'hôtel particulier
TTITLE15=en melody
TTITLE16=cargo culte
TTITLE17=la décadanse
TTITLE18=sex shop
TTITLE19=je suis venu te dire que je m'en vais
TTITLE20=vu de l'extérieur
TTITLE21=panpan cucul
EXTD=
EXTT0=
EXTT1=
EXTT2=
EXTT3=
EXTT4=
EXTT5=
EXTT6=
EXTT7=
EXTT8=
EXTT9=
EXTT10=
EXTT11=
EXTT12=
EXTT13=
EXTT14=
EXTT15=
EXTT16=
EXTT17=
EXTT18=
EXTT19=
EXTT20=
EXTT21=
PLAYORDER=
